<svg xmlns="http://www.w3.org/2000/svg" width="350" height="349" viewBox="0 0 350 349">
  <defs>
    <style>
      .cls-1 {
        fill: #454fd9;
        fill-rule: evenodd;
      }
    </style>
  </defs>
  <path id="SN" class="cls-1" d="M126.917,250.467a29.31,29.31,0,0,0,15.312-4.167,32.316,32.316,0,0,0,11.25-11.25,29.326,29.326,0,0,0,4.271-15.417V190.05a29.18,29.18,0,0,0-4.271-15.521,32.647,32.647,0,0,0-11.25-11.146,29.346,29.346,0,0,0-15.312-4.166H40.042v-26.25h85v12.291H157.75V131.3a29.18,29.18,0,0,0-4.271-15.521,32.647,32.647,0,0,0-11.25-11.146,29.346,29.346,0,0,0-15.312-4.166H38.583a29.875,29.875,0,0,0-15.417,4.166,31.47,31.47,0,0,0-11.25,11.146A29.691,29.691,0,0,0,7.75,131.3v29.583A29.674,29.674,0,0,0,11.917,176.4a31.422,31.422,0,0,0,11.25,11.146,29.838,29.838,0,0,0,15.417,4.167h86.459v26.25h-85V205.675H7.75v13.958a29.838,29.838,0,0,0,4.167,15.417,31.17,31.17,0,0,0,11.25,11.25,29.838,29.838,0,0,0,15.417,4.167h88.334Zm94.541,0V150.05l84.375,100.417h33.334v-150H306.458v100l-83.958-100H189.167v150h32.291Z"/>
</svg>
